<svg xmlns:xlink="http://www.w3.org/1999/xlink" xmlns="http://www.w3.org/2000/svg">
    <defs>
        <symbol id="search-loupe" viewBox="0 -960 960 960">
            <path d="M380-320q-109 0-184.5-75.5T120-580q0-109 75.5-184.5T380-840q109 0 184.5 75.5T640-580q0 44-14 83t-38 69l224 224q11 11 11 28t-11 28q-11 11-28 11t-28-11L532-372q-30 24-69 38t-83 14Zm0-80q75 0 127.5-52.5T560-580q0-75-52.5-127.5T380-760q-75 0-127.5 52.5T200-580q0 75 52.5 127.5T380-400Z"/>
        </symbol>
        <symbol id="btn-search-clear" viewBox="0 -960 960 960">
            <path d="m480-424 116 116q11 11 28 11t28-11q11-11 11-28t-11-28L536-480l116-116q11-11 11-28t-11-28q-11-11-28-11t-28 11L480-536 364-652q-11-11-28-11t-28 11q-11 11-11 28t11 28l116 116-116 116q-11 11-11 28t11 28q11 11 28 11t28-11l116-116Zm0 344q-83 0-156-31.5T197-197q-54-54-85.5-127T80-480q0-83 31.5-156T197-763q54-54 127-85.5T480-880q83 0 156 31.5T763-763q54 54 85.5 127T880-480q0 83-31.5 156T763-197q-54 54-127 85.5T480-80Z"/>
        </symbol>
        <symbol id="rule-outgoing" viewBox="0 0 20 20">
            <path d="M10.1541722,3.75 C11.4914503,3.75 11.9763797,3.88923842 12.4652686,4.15069906 C12.9541574,4.41215969 13.3378403,4.79584256 13.5993009,5.28473144 L13.6915863,5.46955165 C13.8789806,5.8768407 13.9842851,6.35217799 13.9983725,7.35486756 L14,7.75 L12.67,7.75 L12.67,7.5958278 C12.67,6.57738592 12.6064978,6.2485443 12.4264894,5.91195793 C12.2889845,5.65484611 12.0951539,5.46101551 11.8380421,5.32351061 C11.5254976,5.15635999 11.219631,5.08966617 10.3621088,5.08099129 L5.8458278,5.08 C4.82738592,5.08 4.4985443,5.14350225 4.16195793,5.32351061 C3.90484611,5.46101551 3.71101551,5.65484611 3.57351061,5.91195793 C3.40635999,6.22450242 3.33966617,6.53036904 3.33099129,7.38789123 L3.33,12.4041722 C3.33,13.4226141 3.39350225,13.7514557 3.57351061,14.0880421 C3.71101551,14.3451539 3.90484611,14.5389845 4.16195793,14.6764894 C4.47450242,14.84364 4.78036904,14.9103338 5.63789123,14.9190087 L10.1541722,14.92 C11.1726141,14.92 11.5014557,14.8564978 11.8380421,14.6764894 C12.0951539,14.5389845 12.2889845,14.3451539 12.4264894,14.0880421 C12.59364,13.7754976 12.6603338,13.469631 12.6690087,12.6121088 L12.67,12.25 L14,12.25 L14,12.4041722 C14,13.7414503 13.8607616,14.2263797 13.5993009,14.7152686 C13.3378403,15.2041574 12.9541574,15.5878403 12.4652686,15.8493009 L12.2804483,15.9415863 C11.8418294,16.1433956 11.3242905,16.25 10.1541722,16.25 L5.8458278,16.25 C4.50854969,16.25 4.02362033,16.1107616 3.53473144,15.8493009 C3.04584256,15.5878403 2.66215969,15.2041574 2.40069906,14.7152686 L2.30841372,14.5304483 C2.12101936,14.1231593 2.01571494,13.647822 2.00162755,12.6451324 L2,7.5958278 C2,6.25854969 2.13923842,5.77362033 2.40069906,5.28473144 C2.66215969,4.79584256 3.04584256,4.41215969 3.53473144,4.15069906 L3.71955165,4.05841372 C4.1268407,3.87101936 4.60217799,3.76571494 5.60486756,3.75162755 L10.1541722,3.75 Z M16.9596194,6.79038059 L19.4974869,9.3282481 C19.8684856,9.699246 19.8684856,10.300754 19.4974874,10.6717514 L16.9596194,13.2096194 C16.7057786,13.4634602 16.2942214,13.4634602 16.0403806,13.2096194 C15.7865398,12.9557786 15.7865398,12.5442214 16.0403806,12.2903806 L17.68,10.65 L7,10.65 C6.64101491,10.65 6.35,10.3589851 6.35,10 C6.35,9.64101491 6.64101491,9.35 7,9.35 L17.68,9.35 L16.0403806,7.70961941 C15.7865398,7.45577862 15.7865398,7.04422138 16.0403806,6.79038059 C16.2942214,6.5365398 16.7057786,6.5365398 16.9596194,6.79038059 Z"/>
        </symbol>
        <symbol id="rule-incoming" viewBox="0 0 20 20">
            <path d="M10.1541722,3.75 C11.4914503,3.75 11.9763797,3.88923842 12.4652686,4.15069906 C12.9541574,4.41215969 13.3378403,4.79584256 13.5993009,5.28473144 L13.6915863,5.46955165 C13.8789806,5.8768407 13.9842851,6.35217799 13.9983725,7.35486756 L14,7.75 L12.67,7.75 L12.67,7.5958278 C12.67,6.57738592 12.6064978,6.2485443 12.4264894,5.91195793 C12.2889845,5.65484611 12.0951539,5.46101551 11.8380421,5.32351061 C11.5254976,5.15635999 11.219631,5.08966617 10.3621088,5.08099129 L5.8458278,5.08 C4.82738592,5.08 4.4985443,5.14350225 4.16195793,5.32351061 C3.90484611,5.46101551 3.71101551,5.65484611 3.57351061,5.91195793 C3.40635999,6.22450242 3.33966617,6.53036904 3.33099129,7.38789123 L3.33,12.4041722 C3.33,13.4226141 3.39350225,13.7514557 3.57351061,14.0880421 C3.71101551,14.3451539 3.90484611,14.5389845 4.16195793,14.6764894 C4.47450242,14.84364 4.78036904,14.9103338 5.63789123,14.9190087 L10.1541722,14.92 C11.1726141,14.92 11.5014557,14.8564978 11.8380421,14.6764894 C12.0951539,14.5389845 12.2889845,14.3451539 12.4264894,14.0880421 C12.59364,13.7754976 12.6603338,13.469631 12.6690087,12.6121088 L12.67,12.25 L14,12.25 L14,12.4041722 C14,13.7414503 13.8607616,14.2263797 13.5993009,14.7152686 C13.3378403,15.2041574 12.9541574,15.5878403 12.4652686,15.8493009 L12.2804483,15.9415863 C11.8418294,16.1433956 11.3242905,16.25 10.1541722,16.25 L5.8458278,16.25 C4.50854969,16.25 4.02362033,16.1107616 3.53473144,15.8493009 C3.04584256,15.5878403 2.66215969,15.2041574 2.40069906,14.7152686 L2.30841372,14.5304483 C2.12101936,14.1231593 2.01571494,13.647822 2.00162755,12.6451324 L2,7.5958278 C2,6.25854969 2.13923842,5.77362033 2.40069906,5.28473144 C2.66215969,4.79584256 3.04584256,4.41215969 3.53473144,4.15069906 L3.71955165,4.05841372 C4.1268407,3.87101936 4.60217799,3.76571494 5.60486756,3.75162755 L10.1541722,3.75 Z M9.70961941,6.79038059 C9.9634602,7.04422138 9.9634602,7.45577862 9.70961941,7.70961941 L8.068264,9.35 L18,9.35 C18.3589851,9.35 18.65,9.64101491 18.65,10 C18.65,10.3589851 18.3589851,10.65 18,10.65 L8.068264,10.65 L9.70961941,12.2903806 C9.9634602,12.5442214 9.9634602,12.9557786 9.70961941,13.2096194 C9.45577862,13.4634602 9.04422138,13.4634602 8.79038059,13.2096194 L6.25251308,10.6717519 C5.88151439,10.300754 5.88151439,9.699246 6.25251259,9.32824859 L8.79038059,6.79038059 C9.04422138,6.5365398 9.45577862,6.5365398 9.70961941,6.79038059 Z"/>
        </symbol>
        <symbol id="rule-bidirectional" viewBox="0 0 20 20">
            <path d="M5.60486756,3.75162755 L10.1541722,3.75 C11.4914503,3.75 11.9763797,3.88923842 12.4652686,4.15069906 C12.9541574,4.41215969 13.3378403,4.79584256 13.5993009,5.28473144 L13.6915863,5.46955165 C13.8789806,5.8768407 13.9842851,6.35217799 13.9983725,7.35486756 L14,7.75 L12.67,7.75 L12.67,7.5958278 C12.67,6.57738592 12.6064978,6.2485443 12.4264894,5.91195793 C12.2889845,5.65484611 12.0951539,5.46101551 11.8380421,5.32351061 C11.5254976,5.15635999 11.219631,5.08966617 10.3621088,5.08099129 L5.8458278,5.08 C4.82738592,5.08 4.4985443,5.14350225 4.16195793,5.32351061 C3.90484611,5.46101551 3.71101551,5.65484611 3.57351061,5.91195793 C3.40635999,6.22450242 3.33966617,6.53036904 3.33099129,7.38789123 L3.33,12.4041722 C3.33,13.4226141 3.39350225,13.7514557 3.57351061,14.0880421 C3.71101551,14.3451539 3.90484611,14.5389845 4.16195793,14.6764894 C4.47450242,14.84364 4.78036904,14.9103338 5.63789123,14.9190087 L10.1541722,14.92 C11.1726141,14.92 11.5014557,14.8564978 11.8380421,14.6764894 C12.0951539,14.5389845 12.2889845,14.3451539 12.4264894,14.0880421 C12.59364,13.7754976 12.6603338,13.469631 12.6690087,12.6121088 L12.67,12.25 L14,12.25 L14,12.4041722 C14,13.7414503 13.8607616,14.2263797 13.5993009,14.7152686 C13.3378403,15.2041574 12.9541574,15.5878403 12.4652686,15.8493009 L12.2804483,15.9415863 C11.8418294,16.1433956 11.3242905,16.25 10.1541722,16.25 L5.8458278,16.25 C4.50854969,16.25 4.02362033,16.1107616 3.53473144,15.8493009 C3.04584256,15.5878403 2.66215969,15.2041574 2.40069906,14.7152686 L2.30841372,14.5304483 C2.12101936,14.1231593 2.01571494,13.647822 2.00162755,12.6451324 L2,7.5958278 C2,6.25854969 2.13923842,5.77362033 2.40069906,5.28473144 C2.66215969,4.79584256 3.04584256,4.41215969 3.53473144,4.15069906 L3.71955165,4.05841372 C4.1268407,3.87101936 4.60217799,3.76571494 5.60486756,3.75162755 Z M16.9596194,6.79038059 L19.4974869,9.3282481 C19.8684856,9.699246 19.8684856,10.300754 19.4974874,10.6717514 L16.9596194,13.2096194 C16.7057786,13.4634602 16.2942214,13.4634602 16.0403806,13.2096194 C15.7865398,12.9557786 15.7865398,12.5442214 16.0403806,12.2903806 L17.680264,10.65 L8.068264,10.65 L9.70961941,12.2903806 C9.9634602,12.5442214 9.9634602,12.9557786 9.70961941,13.2096194 C9.45577862,13.4634602 9.04422138,13.4634602 8.79038059,13.2096194 L6.25251308,10.6717519 C5.88151439,10.300754 5.88151439,9.699246 6.25251259,9.32824859 L8.79038059,6.79038059 C9.04422138,6.5365398 9.45577862,6.5365398 9.70961941,6.79038059 C9.9634602,7.04422138 9.9634602,7.45577862 9.70961941,7.70961941 L8.068264,9.35 L17.680264,9.35 L16.0403806,7.70961941 C15.7865398,7.45577862 15.7865398,7.04422138 16.0403806,6.79038059 C16.2942214,6.5365398 16.7057786,6.5365398 16.9596194,6.79038059 Z"/>
        </symbol>
        <symbol id="rule-allow" viewBox="0 0 18 18">
            <path d="M9,0 C13.9705627,-1.77635684e-15 18,4.02943725 18,9 C18,13.9705627 13.9705627,18 9,18 C4.02943725,18 0,13.9705627 0,9 C0,4.02943725 4.02943725,0 9,0 Z"
                  fill="#72C419"/>
        </symbol>
        <symbol id="rule-deny" viewBox="0 0 18 18">
            <path d="M9,0 C13.9705627,-1.77635684e-15 18,4.02943725 18,9 C18,13.9705627 13.9705627,18 9,18 C4.02943725,18 0,13.9705627 0,9 C0,4.02943725 4.02943725,0 9,0 Z"
                  fill="#FF3C00"/>
        </symbol>
        <symbol id="rule-blocklist" viewBox="0 0 18 18">
            <path d="M9,0 C13.9705627,-1.77635684e-15 18,4.02943725 18,9 C18,13.9705627 13.9705627,18 9,18 C4.02943725,18 0,13.9705627 0,9 C0,4.02943725 4.02943725,0 9,0 Z"
                  id="Rectangle-3" fill="#ff3b30"/>
            <path d="M5,7.5 L13,7.5 C13.8284271,7.5 14.5,8.17157288 14.5,9 C14.5,9.82842712 13.8284271,10.5 13,10.5 L5,10.5 C4.17157288,10.5 3.5,9.82842712 3.5,9 C3.5,8.17157288 4.17157288,7.5 5,7.5 Z"
                  id="Rectangle-6" fill="#FFFFFF"/>
        </symbol>
        <symbol id="rule-edit" viewBox="0 -960 960 960">
            <path d="M200-200h57l391-391-57-57-391 391v57Zm-40 80q-17 0-28.5-11.5T120-160v-97q0-16 6-30.5t17-25.5l505-504q12-11 26.5-17t30.5-6q16 0 31 6t26 18l55 56q12 11 17.5 26t5.5 30q0 16-5.5 30.5T817-647L313-143q-11 11-25.5 17t-30.5 6h-97Zm600-584-56-56 56 56Zm-141 85-28-29 57 57-29-28Z"/>
        </symbol>
        <symbol id="rule-delete" viewBox="0 -960 960 960">
            <path d="M280-120q-33 0-56.5-23.5T200-200v-520q-17 0-28.5-11.5T160-760q0-17 11.5-28.5T200-800h160q0-17 11.5-28.5T400-840h160q17 0 28.5 11.5T600-800h160q17 0 28.5 11.5T800-760q0 17-11.5 28.5T760-720v520q0 33-23.5 56.5T680-120H280Zm400-600H280v520h400v-520ZM428.5-291.5Q440-303 440-320v-280q0-17-11.5-28.5T400-640q-17 0-28.5 11.5T360-600v280q0 17 11.5 28.5T400-280q17 0 28.5-11.5Zm160 0Q600-303 600-320v-280q0-17-11.5-28.5T560-640q-17 0-28.5 11.5T520-600v280q0 17 11.5 28.5T560-280q17 0 28.5-11.5ZM280-720v520-520Z"/>
        </symbol>
        <symbol id="btn-remove" viewBox="0 -960 960 960">
            <path d="M200-440v-80h560v80H200Z"/>
        </symbol>
        <symbol id="btn-add" viewBox="0 -960 960 960">
            <path d="M440-440H200v-80h240v-240h80v240h240v80H520v240h-80v-240Z"/>
        </symbol>
        <symbol id="info" viewBox="0 -960 960 960">
            <path d="M440-280h80v-240h-80v240Zm68.5-331.5Q520-623 520-640t-11.5-28.5Q497-680 480-680t-28.5 11.5Q440-657 440-640t11.5 28.5Q463-600 480-600t28.5-11.5ZM480-80q-83 0-156-31.5T197-197q-54-54-85.5-127T80-480q0-83 31.5-156T197-763q54-54 127-85.5T480-880q83 0 156 31.5T763-763q54 54 85.5 127T880-480q0 83-31.5 156T763-197q-54 54-127 85.5T480-80Zm0-80q134 0 227-93t93-227q0-134-93-227t-227-93q-134 0-227 93t-93 227q0 134 93 227t227 93Zm0-320Z"/>
        </symbol>
        <symbol id="theme-automatic" viewBox="0 -960 960 960">
            <path d="M567-364.5Q630-328 702-308q-40 51-98 79.5T481-200q-117 0-198.5-81.5T201-480q0-65 28.5-123t79.5-98q20 72 56.5 135T453-452q51 51 114 87.5ZM743-380q-20-5-39.5-11T665-405q8-18 11.5-36.5T680-480q0-83-58.5-141.5T480-680q-20 0-38.5 3.5T405-665q-8-19-13.5-38T381-742q24-9 49-13.5t51-4.5q117 0 198.5 81.5T761-480q0 26-4.5 51T743-380ZM440-840v-120h80v120h-80Zm0 840v-120h80V0h-80Zm323-706-57-57 85-84 57 56-85 85ZM169-113l-57-56 85-85 57 57-85 84Zm671-327v-80h120v80H840ZM0-440v-80h120v80H0Zm791 328-85-85 57-57 84 85-56 57ZM197-706l-84-85 56-57 85 85-57 57Z"/>
        </symbol>
        <symbol id="theme-dark" viewBox="0 -960 960 960">
            <path d="M480-120q-150 0-255-105T120-480q0-150 105-255t255-105q14 0 27.5 1t26.5 3q-41 29-65.5 75.5T444-660q0 90 63 153t153 63q55 0 101-24.5t75-65.5q2 13 3 26.5t1 27.5q0 150-105 255T480-120Z"/>
        </symbol>
        <symbol id="theme-light" viewBox="0 -960 960 960">
            <path d="M338.5-338.5Q280-397 280-480t58.5-141.5Q397-680 480-680t141.5 58.5Q680-563 680-480t-58.5 141.5Q563-280 480-280t-141.5-58.5ZM200-440H40v-80h160v80Zm720 0H760v-80h160v80ZM440-760v-160h80v160h-80Zm0 720v-160h80v160h-80ZM256-650l-101-97 57-59 96 100-52 56Zm492 496-97-101 53-55 101 97-57 59Zm-98-550 97-101 59 57-100 96-56-52ZM154-212l101-97 55 53-97 101-59-57Z"/>
        </symbol>
        <symbol id="logout" viewBox="0 -960 960 960">
            <path d="M200-120q-33 0-56.5-23.5T120-200v-560q0-33 23.5-56.5T200-840h280v80H200v560h280v80H200Zm440-160-55-58 102-102H360v-80h327L585-622l55-58 200 200-200 200Z"/>
        </symbol>
        <symbol id="details-differ-red" viewBox="0 0 18 18">
            <path fill="#ff3b30" fill-rule="nonzero"
                  d="m10.014 16.606-.006.003-.012.012-.068.058za1.5 1.5 0 0 1-.698.36l-.094.018-.013.001a2 2 0 0 1-.132.013h-.142a2 2 0 0 1-.144-.013l-.013-.001a1.5 1.5 0 0 1-.787-.374l-.097-.096-5.5-6a1.5 1.5 0 1 1 2.212-2.028L7.5 11.644V2.5a1.5 1.5 0 0 1 3 0v9.143l2.894-3.157a1.5 1.5 0 1 1 2.212 2.028l-5.5 6z"/>
        </symbol>
        <symbol id="details-differ-green" viewBox="0 0 18 18">
            <path fill="#2b2" fill-rule="nonzero"
                  d="m10.014 16.606-.006.003-.012.012-.068.058za1.5 1.5 0 0 1-.698.36l-.094.018-.013.001a2 2 0 0 1-.132.013h-.142a2 2 0 0 1-.144-.013l-.013-.001a1.5 1.5 0 0 1-.787-.374l-.097-.096-5.5-6a1.5 1.5 0 1 1 2.212-2.028L7.5 11.644V2.5a1.5 1.5 0 0 1 3 0v9.143l2.894-3.157a1.5 1.5 0 1 1 2.212 2.028l-5.5 6z"/>
        </symbol>
    </defs>
</svg>